<svg width="132" height="33" viewBox="0 0 132 33" fill="none" xmlns="http://www.w3.org/2000/svg">
<g opacity="0.8" clip-path="url(#clip0_780_4063)">
<path d="M38.8772 23.3529H48.1958V20.5461H42.1892V9.97388H38.8772V23.3529Z" fill="black"/>
<path d="M53.7167 21.4818C52.3881 21.4818 51.6958 20.3216 51.6958 18.5814C51.6958 16.8412 52.3881 15.6624 53.7167 15.6624C55.0452 15.6624 55.7563 16.8412 55.7563 18.5814C55.7563 20.3216 55.0452 21.4818 53.7167 21.4818ZM53.7354 23.6523C56.8229 23.6523 58.8438 21.4631 58.8438 18.5814C58.8438 15.6998 56.8229 13.5105 53.7354 13.5105C50.6666 13.5105 48.6083 15.6998 48.6083 18.5814C48.6083 21.4631 50.6666 23.6523 53.7354 23.6523Z" fill="black"/>
<path d="M64.1879 26.6649C65.61 26.6649 66.8637 26.3468 67.7057 25.5983C68.4729 24.906 68.9781 23.8581 68.9781 22.4173V13.7724H66.0591V14.8015H66.0217C65.4603 13.9969 64.5995 13.4917 63.3271 13.4917C60.9507 13.4917 59.3041 15.4752 59.3041 18.2819C59.3041 21.2197 61.3063 22.8289 63.4581 22.8289C64.6183 22.8289 65.348 22.3611 65.9094 21.7249H65.9842V22.6792C65.9842 23.8394 65.4416 24.513 64.1505 24.513C63.14 24.513 62.6348 24.0826 62.4664 23.5774H59.5099C59.8093 25.5796 61.5495 26.6649 64.1879 26.6649ZM64.1692 20.5648C63.0278 20.5648 62.2793 19.6292 62.2793 18.1884C62.2793 16.7289 63.0278 15.7933 64.1692 15.7933C65.4416 15.7933 66.1152 16.8786 66.1152 18.1697C66.1152 19.5169 65.4977 20.5648 64.1692 20.5648Z" fill="black"/>
<path d="M74.9803 21.4818C73.6518 21.4818 72.9594 20.3216 72.9594 18.5814C72.9594 16.8412 73.6518 15.6624 74.9803 15.6624C76.3088 15.6624 77.0199 16.8412 77.0199 18.5814C77.0199 20.3216 76.3088 21.4818 74.9803 21.4818ZM74.999 23.6523C78.0865 23.6523 80.107 21.4631 80.107 18.5814C80.107 15.6998 78.0865 13.5105 74.999 13.5105C71.9303 13.5105 69.8719 15.6998 69.8719 18.5814C69.8719 21.4631 71.9303 23.6523 74.999 23.6523Z" fill="black"/>
<path d="M80.9981 23.3529H84.0481V13.7724H80.9981V23.3529ZM80.9981 12.4438H84.0481V9.97388H80.9981V12.4438Z" fill="black"/>
<path d="M85.3712 26.5152H88.4213V22.3611H88.4587C89.0575 23.1658 89.9369 23.6523 91.1719 23.6523C93.6793 23.6523 95.3447 21.6688 95.3447 18.5626C95.3447 15.681 93.7916 13.4917 91.2467 13.4917C89.9369 13.4917 89.0013 14.0718 88.3464 14.9325H88.2903V13.7724H85.3712V26.5152ZM90.386 21.2946C89.0762 21.2946 88.3277 20.228 88.3277 18.6749C88.3277 17.1218 89.0013 15.943 90.3299 15.943C91.6397 15.943 92.2572 17.0282 92.2572 18.6749C92.2572 20.3028 91.5461 21.2946 90.386 21.2946Z" fill="black"/>
<path d="M100.31 23.6523C102.818 23.6523 104.67 22.567 104.67 20.4712C104.67 18.02 102.687 17.5896 101.003 17.3089C99.7864 17.0844 98.7011 16.9908 98.7011 16.3172C98.7011 15.7184 99.2812 15.4377 100.03 15.4377C100.872 15.4377 101.452 15.6997 101.564 16.5605H104.371C104.221 14.6705 102.762 13.4917 100.048 13.4917C97.7842 13.4917 95.9131 14.5396 95.9131 16.5605C95.9131 18.8059 97.6907 19.255 99.356 19.5356C100.628 19.7602 101.789 19.8537 101.789 20.7145C101.789 21.332 101.209 21.6688 100.292 21.6688C99.2812 21.6688 98.645 21.201 98.5327 20.2467H95.6511C95.7447 22.3611 97.5036 23.6523 100.31 23.6523Z" fill="black"/>
<path d="M108.813 23.6336C110.142 23.6336 110.984 23.1097 111.676 22.1741H111.732V23.353H114.651V13.7725H111.601V19.1241C111.601 20.2655 110.965 21.0514 109.917 21.0514C108.944 21.0514 108.477 20.4713 108.477 19.4235V13.7725H105.445V20.0597C105.445 22.1928 106.605 23.6336 108.813 23.6336Z" fill="black"/>
<path d="M115.978 23.3529H119.028V17.9826C119.028 16.8411 119.59 16.0365 120.544 16.0365C121.461 16.0365 121.891 16.6353 121.891 17.6645V23.3529H124.941V17.9826C124.941 16.8411 125.484 16.0365 126.457 16.0365C127.374 16.0365 127.804 16.6353 127.804 17.6645V23.3529H130.854V17.1218C130.854 14.9699 129.769 13.4917 127.599 13.4917C126.364 13.4917 125.334 14.0156 124.586 15.1758H124.548C124.062 14.1466 123.108 13.4917 121.854 13.4917C120.469 13.4917 119.552 14.1466 118.954 15.1383H118.897V13.7724H115.978V23.3529Z" fill="black"/>
<path d="M20.2685 2.32117L17.2021 1.49951L14.618 11.1436L12.285 2.43685L9.21854 3.25851L11.7392 12.6655L5.46085 6.3872L3.21605 8.632L10.1026 15.5186L1.5265 13.2206L0.704849 16.287L10.0753 18.7979C9.96803 18.3351 9.91127 17.853 9.91127 17.3576C9.91127 13.851 12.7539 11.0083 16.2605 11.0083C19.7671 11.0083 22.6098 13.851 22.6098 17.3576C22.6098 17.8498 22.5537 18.329 22.4478 18.789L30.9638 21.0708L31.7854 18.0044L22.3777 15.4836L30.9544 13.1855L30.1327 10.119L20.7254 12.6397L27.0037 6.36142L24.7589 4.11663L17.9678 10.9077L20.2685 2.32117Z" fill="black"/>
<path d="M22.4394 18.8247C22.1765 19.9362 21.6215 20.9347 20.8599 21.7347L27.0294 27.9043L29.2742 25.6595L22.4394 18.8247Z" fill="black"/>
<path d="M20.7975 21.7991C20.0268 22.5863 19.0527 23.1738 17.9604 23.4765L20.2054 31.8548L23.2718 31.0331L20.7975 21.7991Z" fill="black"/>
<path d="M17.8459 23.5074C17.3391 23.6376 16.8079 23.7069 16.2605 23.7069C15.6741 23.7069 15.1062 23.6274 14.567 23.4785L12.32 31.8644L15.3865 32.686L17.8459 23.5074Z" fill="black"/>
<path d="M14.4587 23.4474C13.3831 23.1296 12.4263 22.5346 11.6713 21.7451L5.48665 27.9298L7.73145 30.1746L14.4587 23.4474Z" fill="black"/>
<path d="M11.6197 21.6906C10.8776 20.8962 10.337 19.911 10.0798 18.8167L1.53593 21.106L2.35758 24.1724L11.6197 21.6906Z" fill="black"/>
</g>
<defs>
<clipPath id="clip0_780_4063">
<rect width="130.983" height="31.9662" fill="white" transform="translate(0.457397 0.779785)"/>
</clipPath>
</defs>
</svg>
