<svg width="132" height="33" viewBox="0 0 132 33" fill="none" xmlns="http://www.w3.org/2000/svg">
<g opacity="0.8" clip-path="url(#clip0_780_4052)">
<path d="M39.857 22.8856H49.1755V20.0788H43.169V9.50659H39.857V22.8856Z" fill="black"/>
<path d="M54.6964 21.0145C53.3679 21.0145 52.6755 19.8543 52.6755 18.1141C52.6755 16.3739 53.3679 15.1951 54.6964 15.1951C56.025 15.1951 56.736 16.3739 56.736 18.1141C56.736 19.8543 56.025 21.0145 54.6964 21.0145ZM54.7151 23.1851C57.8026 23.1851 59.8235 20.9958 59.8235 18.1141C59.8235 15.2325 57.8026 13.0432 54.7151 13.0432C51.6464 13.0432 49.5881 15.2325 49.5881 18.1141C49.5881 20.9958 51.6464 23.1851 54.7151 23.1851Z" fill="black"/>
<path d="M65.1677 26.1976C66.5898 26.1976 67.8435 25.8795 68.6855 25.131C69.4527 24.4387 69.9579 23.3908 69.9579 21.95V13.3051H67.0388V14.3342H67.0014C66.4401 13.5296 65.5793 13.0244 64.3069 13.0244C61.9305 13.0244 60.2838 15.0079 60.2838 17.8147C60.2838 20.7524 62.286 22.3617 64.4379 22.3617C65.598 22.3617 66.3278 21.8939 66.8891 21.2577H66.964V22.212C66.964 23.3721 66.4214 24.0457 65.1302 24.0457C64.1198 24.0457 63.6146 23.6153 63.4462 23.1101H60.4897C60.7891 25.1123 62.5293 26.1976 65.1677 26.1976ZM65.1489 20.0975C64.0075 20.0975 63.259 19.1619 63.259 17.7211C63.259 16.2616 64.0075 15.326 65.1489 15.326C66.4213 15.326 67.095 16.4113 67.095 17.7024C67.095 19.0496 66.4775 20.0975 65.1489 20.0975Z" fill="black"/>
<path d="M75.96 21.0145C74.6314 21.0145 73.9391 19.8543 73.9391 18.1141C73.9391 16.3739 74.6314 15.1951 75.96 15.1951C77.2885 15.1951 77.9996 16.3739 77.9996 18.1141C77.9996 19.8543 77.2885 21.0145 75.96 21.0145ZM75.9787 23.1851C79.0662 23.1851 81.087 20.9958 81.087 18.1141C81.087 15.2325 79.0662 13.0432 75.9787 13.0432C72.9099 13.0432 70.8516 15.2325 70.8516 18.1141C70.8516 20.9958 72.9099 23.1851 75.9787 23.1851Z" fill="black"/>
<path d="M81.9774 22.8856H85.0275V13.3051H81.9774V22.8856ZM81.9774 11.9766H85.0275V9.50659H81.9774V11.9766Z" fill="black"/>
<path d="M86.3513 26.0479H89.4014V21.8939H89.4388C90.0376 22.6985 90.917 23.185 92.152 23.185C94.6594 23.185 96.3248 21.2015 96.3248 18.0953C96.3248 15.2137 94.7717 13.0244 92.2269 13.0244C90.917 13.0244 89.9814 13.6045 89.3265 14.4652H89.2704V13.3051H86.3513V26.0479ZM91.3661 20.8273C90.0563 20.8273 89.3078 19.7607 89.3078 18.2076C89.3078 16.6545 89.9814 15.4757 91.31 15.4757C92.6198 15.4757 93.2373 16.561 93.2373 18.2076C93.2373 19.8355 92.5263 20.8273 91.3661 20.8273Z" fill="black"/>
<path d="M101.29 23.185C103.798 23.185 105.65 22.0997 105.65 20.004C105.65 17.5527 103.667 17.1223 101.983 16.8416C100.767 16.6171 99.6812 16.5235 99.6812 15.8499C99.6812 15.2511 100.261 14.9705 101.01 14.9705C101.852 14.9705 102.432 15.2324 102.544 16.0932H105.351C105.201 14.2033 103.742 13.0244 101.028 13.0244C98.7643 13.0244 96.8931 14.0723 96.8931 16.0932C96.8931 18.3386 98.6708 18.7877 100.336 19.0684C101.609 19.2929 102.769 19.3865 102.769 20.2472C102.769 20.8647 102.189 21.2015 101.272 21.2015C100.261 21.2015 99.6251 20.7337 99.5128 19.7794H96.6312C96.7247 21.8939 98.4837 23.185 101.29 23.185Z" fill="black"/>
<path d="M109.793 23.1663C111.122 23.1663 111.964 22.6424 112.656 21.7068H112.712V22.8857H115.632V13.3052H112.582V18.6568C112.582 19.7982 111.945 20.5841 110.897 20.5841C109.924 20.5841 109.457 20.004 109.457 18.9562V13.3052H106.425V19.5924C106.425 21.7255 107.585 23.1663 109.793 23.1663Z" fill="black"/>
<path d="M116.958 22.8856H120.008V17.5153C120.008 16.3738 120.569 15.5692 121.523 15.5692C122.44 15.5692 122.871 16.168 122.871 17.1972V22.8856H125.921V17.5153C125.921 16.3738 126.463 15.5692 127.436 15.5692C128.353 15.5692 128.784 16.168 128.784 17.1972V22.8856H131.834V16.6545C131.834 14.5027 130.748 13.0244 128.578 13.0244C127.343 13.0244 126.314 13.5483 125.565 14.7085H125.528C125.041 13.6793 124.087 13.0244 122.833 13.0244C121.449 13.0244 120.532 13.6793 119.933 14.6711H119.877V13.3051H116.958V22.8856Z" fill="black"/>
<path fill-rule="evenodd" clip-rule="evenodd" d="M16.33 0.75C25.1104 0.75 32.2283 7.86791 32.2283 16.6483C32.2283 25.4288 25.1104 32.5467 16.33 32.5467C7.54952 32.5467 0.431595 25.4288 0.431595 16.6483C0.431595 7.86791 7.54952 0.75 16.33 0.75ZM31.6181 16.6483C31.6181 8.20496 24.7733 1.36018 16.33 1.36018C15.6489 1.36018 14.9783 1.40471 14.3207 1.49103C14.7455 1.45389 15.1754 1.43493 15.6099 1.43493C23.678 1.43493 30.2185 7.97542 30.2185 16.0435C30.2185 24.1116 23.678 30.6521 15.6099 30.6521C7.97157 30.6521 1.70244 24.7899 1.05623 17.3191C1.40727 25.4512 8.11124 31.9365 16.33 31.9365C24.7733 31.9365 31.6181 25.0917 31.6181 16.6483ZM29.6082 16.0435C29.6082 8.31239 23.341 2.04511 15.6099 2.04511C14.9822 2.04511 14.3641 2.08644 13.7582 2.1665C14.1312 2.13511 14.5087 2.1191 14.8899 2.1191C22.2457 2.1191 28.2087 8.08216 28.2087 15.4379C28.2087 22.7937 22.2457 28.7567 14.8899 28.7567C7.93478 28.7567 2.22484 23.4256 1.62343 16.6268C1.9292 24.0874 8.0742 30.0419 15.6099 30.0419C23.341 30.0419 29.6082 23.7746 29.6082 16.0435ZM14.8899 2.72928C21.9086 2.72928 27.5985 8.41913 27.5985 15.4379C27.5985 22.4566 21.9086 28.1465 14.8899 28.1465C8.03374 28.1465 2.4456 22.7172 2.19038 15.9235C2.7414 22.0555 7.89442 26.8613 14.1699 26.8613C20.8129 26.8613 26.1982 21.4761 26.1982 14.833C26.1982 8.18999 20.8129 2.80479 14.1699 2.80479C13.8262 2.80479 13.4859 2.8192 13.1496 2.84745C13.7186 2.76954 14.2995 2.72928 14.8899 2.72928ZM25.5879 14.833C25.5879 8.52703 20.4759 3.41497 14.1699 3.41497C13.6371 3.41497 13.1128 3.45146 12.5994 3.52208C12.8797 3.50014 13.1631 3.48897 13.449 3.48897C19.3798 3.48897 24.1876 8.29672 24.1876 14.2275C24.1876 20.1581 19.3798 24.9659 13.449 24.9659C7.86694 24.9659 3.27963 20.7067 2.75967 15.2608C2.98463 21.3686 8.00707 26.2511 14.1699 26.2511C20.4759 26.2511 25.5879 21.1391 25.5879 14.833ZM13.449 4.09915C19.0427 4.09915 23.5773 8.63377 23.5773 14.2275C23.5773 19.8211 19.0427 24.3557 13.449 24.3557C7.96555 24.3557 3.49984 19.9981 3.32602 14.5568C3.79548 19.3363 7.82617 23.0705 12.729 23.0705C17.9475 23.0705 22.1778 18.8402 22.1778 13.6218C22.1778 8.40346 17.9475 4.17313 12.729 4.17313C12.4897 4.17313 12.2525 4.18203 12.0177 4.19951C12.4853 4.13336 12.9632 4.09915 13.449 4.09915ZM21.5676 13.6218C21.5676 8.74043 17.6104 4.78332 12.729 4.78332C12.2834 4.78332 11.8456 4.81629 11.4177 4.87993C11.613 4.86594 11.8102 4.85882 12.0091 4.85882C16.5147 4.85882 20.1672 8.51136 20.1672 13.017C20.1672 17.5226 16.5147 21.1751 12.0091 21.1751C7.78703 21.1751 4.3141 17.968 3.8936 13.857C4.01826 18.6297 7.92631 22.4604 12.729 22.4604C17.6104 22.4604 21.5676 18.5032 21.5676 13.6218ZM12.0091 5.46901C16.1777 5.46901 19.557 8.84833 19.557 13.017C19.557 17.1857 16.1777 20.5649 12.0091 20.5649C7.89346 20.5649 4.54721 17.2711 4.4627 13.1758C4.84289 16.6093 7.75411 19.2798 11.2891 19.2798C15.0824 19.2798 18.1574 16.2047 18.1574 12.4114C18.1574 8.6181 15.0824 5.54299 11.2891 5.54299C11.144 5.54299 11 5.54749 10.8571 5.55636C11.2327 5.49884 11.6174 5.46901 12.0091 5.46901ZM17.5473 12.4114C17.5473 8.95507 14.7454 6.15318 11.2891 6.15318C10.942 6.15318 10.6015 6.18143 10.2697 6.23577C10.3686 6.23056 10.4681 6.22793 10.5683 6.22793C13.6492 6.22793 16.1468 8.72554 16.1468 11.8065C16.1468 14.8875 13.6492 17.3852 10.5683 17.3852C7.7194 17.3852 5.36932 15.2497 5.03135 12.4922C5.07462 15.9113 7.85972 18.6696 11.2891 18.6696C14.7454 18.6696 17.5473 15.8677 17.5473 12.4114ZM10.5683 6.83811C13.3122 6.83811 15.5367 9.06251 15.5367 11.8065C15.5367 14.5506 13.3122 16.7749 10.5683 16.7749C7.82425 16.7749 5.59981 14.5506 5.59981 11.8065C5.59981 11.8 5.59982 11.7934 5.59985 11.7868C5.88553 13.8779 7.67873 15.489 9.84825 15.489C12.2165 15.489 14.1363 13.5692 14.1363 11.201C14.1363 8.83266 12.2165 6.91287 9.84825 6.91287C9.79468 6.91287 9.74135 6.91384 9.68826 6.91579C9.97385 6.86475 10.2679 6.83811 10.5683 6.83811ZM13.5261 11.201C13.5261 9.16971 11.8795 7.52305 9.84825 7.52305C7.81699 7.52305 6.17034 9.16971 6.17034 11.201C6.17034 13.2321 7.81699 14.8788 9.84825 14.8788C11.8795 14.8788 13.5261 13.2321 13.5261 11.201Z" fill="black"/>
</g>
<defs>
<clipPath id="clip0_780_4052">
<rect width="131.763" height="32.7458" fill="white" transform="translate(0.203247)"/>
</clipPath>
</defs>
</svg>
