<svg width="134" height="33" viewBox="0 0 134 33" fill="none" xmlns="http://www.w3.org/2000/svg">
<g opacity="0.8" clip-path="url(#clip0_780_4030)">
<path d="M40.9079 22.7179H50.2264V19.9111H44.2199V9.33887H40.9079V22.7179Z" fill="black"/>
<path d="M55.7473 20.8468C54.4187 20.8468 53.7264 19.6866 53.7264 17.9464C53.7264 16.2062 54.4187 15.0274 55.7473 15.0274C57.0758 15.0274 57.7869 16.2062 57.7869 17.9464C57.7869 19.6866 57.0758 20.8468 55.7473 20.8468ZM55.766 23.0173C58.8534 23.0173 60.8743 20.828 60.8743 17.9464C60.8743 15.0648 58.8534 12.8755 55.766 12.8755C52.6972 12.8755 50.6389 15.0648 50.6389 17.9464C50.6389 20.828 52.6972 23.0173 55.766 23.0173Z" fill="black"/>
<path d="M66.2186 26.0299C67.6407 26.0299 68.8944 25.7118 69.7364 24.9633C70.5036 24.271 71.0088 23.2231 71.0088 21.7823V13.1374H68.0897V14.1665H68.0523C67.491 13.3619 66.6302 12.8567 65.3578 12.8567C62.9814 12.8567 61.3347 14.8402 61.3347 17.6469C61.3347 20.5847 63.3369 22.1939 65.4888 22.1939C66.6489 22.1939 67.3787 21.7261 67.94 21.0899H68.0149V22.0442C68.0149 23.2044 67.4723 23.878 66.1811 23.878C65.1707 23.878 64.6655 23.4476 64.4971 22.9424H61.5406C61.84 24.9446 63.5802 26.0299 66.2186 26.0299ZM66.1998 19.9298C65.0584 19.9298 64.3099 18.9942 64.3099 17.5534C64.3099 16.0938 65.0584 15.1583 66.1998 15.1583C67.4722 15.1583 68.1459 16.2435 68.1459 17.5347C68.1459 18.8819 67.5284 19.9298 66.1998 19.9298Z" fill="black"/>
<path d="M77.0109 20.8468C75.6823 20.8468 74.99 19.6866 74.99 17.9464C74.99 16.2062 75.6823 15.0274 77.0109 15.0274C78.3394 15.0274 79.0505 16.2062 79.0505 17.9464C79.0505 19.6866 78.3394 20.8468 77.0109 20.8468ZM77.0296 23.0173C80.1171 23.0173 82.1379 20.828 82.1379 17.9464C82.1379 15.0648 80.1171 12.8755 77.0296 12.8755C73.9608 12.8755 71.9025 15.0648 71.9025 17.9464C71.9025 20.828 73.9608 23.0173 77.0296 23.0173Z" fill="black"/>
<path d="M83.0283 22.7179H86.0784V13.1374H83.0283V22.7179ZM83.0283 11.8088H86.0784V9.33887H83.0283V11.8088Z" fill="black"/>
<path d="M87.4022 25.8802H90.4523V21.7261H90.4897C91.0885 22.5307 91.9679 23.0173 93.2029 23.0173C95.7103 23.0173 97.3757 21.0338 97.3757 17.9276C97.3757 15.046 95.8226 12.8567 93.2778 12.8567C91.9679 12.8567 91.0323 13.4368 90.3774 14.2975H90.3213V13.1374H87.4022V25.8802ZM92.417 20.6596C91.1072 20.6596 90.3587 19.593 90.3587 18.0399C90.3587 16.4868 91.0323 15.3079 92.3609 15.3079C93.6707 15.3079 94.2882 16.3932 94.2882 18.0399C94.2882 19.6678 93.5771 20.6596 92.417 20.6596Z" fill="black"/>
<path d="M102.341 23.0173C104.849 23.0173 106.701 21.932 106.701 19.8362C106.701 17.385 104.718 16.9546 103.034 16.6739C101.817 16.4494 100.732 16.3558 100.732 15.6822C100.732 15.0834 101.312 14.8027 102.061 14.8027C102.903 14.8027 103.483 15.0647 103.595 15.9254H106.402C106.252 14.0355 104.793 12.8567 102.079 12.8567C99.8152 12.8567 97.944 13.9046 97.944 15.9254C97.944 18.1709 99.7217 18.62 101.387 18.9006C102.659 19.1252 103.82 19.2187 103.82 20.0795C103.82 20.697 103.239 21.0338 102.323 21.0338C101.312 21.0338 100.676 20.566 100.564 19.6117H97.6821C97.7756 21.7261 99.5345 23.0173 102.341 23.0173Z" fill="black"/>
<path d="M110.844 22.9986C112.173 22.9986 113.015 22.4747 113.707 21.5391H113.763V22.7179H116.682V13.1375H113.632V18.4891C113.632 19.6305 112.996 20.4164 111.948 20.4164C110.975 20.4164 110.508 19.8363 110.508 18.7884V13.1375H107.476V19.4246C107.476 21.5578 108.636 22.9986 110.844 22.9986Z" fill="black"/>
<path d="M118.009 22.7179H121.059V17.3475C121.059 16.2061 121.62 15.4015 122.574 15.4015C123.491 15.4015 123.922 16.0003 123.922 17.0294V22.7179H126.972V17.3475C126.972 16.2061 127.514 15.4015 128.487 15.4015C129.404 15.4015 129.835 16.0003 129.835 17.0294V22.7179H132.885V16.4868C132.885 14.3349 131.799 12.8567 129.629 12.8567C128.394 12.8567 127.365 13.3806 126.616 14.5408H126.579C126.092 13.5116 125.138 12.8567 123.884 12.8567C122.499 12.8567 121.583 13.5116 120.984 14.5033H120.928V13.1374H118.009V22.7179Z" fill="black"/>
<path fill-rule="evenodd" clip-rule="evenodd" d="M16.6011 32.0739C25.2131 32.0739 32.1944 25.0926 32.1944 16.4807C32.1944 7.86879 25.2131 0.887451 16.6011 0.887451C7.9892 0.887451 1.00787 7.86879 1.00787 16.4807C1.00787 25.0926 7.9892 32.0739 16.6011 32.0739ZM21.4657 8.15144C21.7025 7.31035 20.8862 6.81299 20.1408 7.34407L9.73473 14.7573C8.9263 15.3333 9.05346 16.4807 9.92575 16.4807H12.6659V16.4595H18.0065L13.655 17.9949L11.7366 24.81C11.4998 25.6511 12.316 26.1484 13.0615 25.6173L23.4676 18.2041C24.276 17.6282 24.1487 16.4807 23.2765 16.4807H19.1211L21.4657 8.15144Z" fill="black"/>
</g>
<defs>
<clipPath id="clip0_780_4030">
<rect width="132.543" height="31.9662" fill="white" transform="translate(0.474518 0.779785)"/>
</clipPath>
</defs>
</svg>
