<svg width="134" height="33" viewBox="0 0 134 33" fill="none" xmlns="http://www.w3.org/2000/svg">
<g opacity="0.8" clip-path="url(#clip0_780_4079)">
<path d="M40.911 23.6419H50.2295V20.8352H44.223V10.2629H40.911V23.6419Z" fill="black"/>
<path d="M55.7504 21.7708C54.4219 21.7708 53.7295 20.6107 53.7295 18.8705C53.7295 17.1303 54.4219 15.9514 55.7504 15.9514C57.079 15.9514 57.79 17.1303 57.79 18.8705C57.79 20.6107 57.079 21.7708 55.7504 21.7708ZM55.7691 23.9414C58.8566 23.9414 60.8775 21.7521 60.8775 18.8705C60.8775 15.9889 58.8566 13.7996 55.7691 13.7996C52.7004 13.7996 50.6421 15.9889 50.6421 18.8705C50.6421 21.7521 52.7004 23.9414 55.7691 23.9414Z" fill="black"/>
<path d="M66.2216 26.9539C67.6437 26.9539 68.8974 26.6358 69.7394 25.8874C70.5066 25.195 71.0118 24.1472 71.0118 22.7063V14.0614H68.0928V15.0906H68.0553C67.494 14.286 66.6332 13.7808 65.3608 13.7808C62.9844 13.7808 61.3378 15.7642 61.3378 18.571C61.3378 21.5088 63.3399 23.118 65.4918 23.118C66.652 23.118 67.3817 22.6502 67.9431 22.014H68.0179V22.9683C68.0179 24.1284 67.4753 24.8021 66.1842 24.8021C65.1737 24.8021 64.6685 24.3717 64.5001 23.8665H61.5436C61.843 25.8687 63.5832 26.9539 66.2216 26.9539ZM66.2029 20.8539C65.0614 20.8539 64.313 19.9183 64.313 18.4774C64.313 17.0179 65.0614 16.0823 66.2029 16.0823C67.4753 16.0823 68.1489 17.1676 68.1489 18.4587C68.1489 19.806 67.5314 20.8539 66.2029 20.8539Z" fill="black"/>
<path d="M77.014 21.7708C75.6855 21.7708 74.9931 20.6107 74.9931 18.8705C74.9931 17.1303 75.6855 15.9514 77.014 15.9514C78.3426 15.9514 79.0533 17.1303 79.0533 18.8705C79.0533 20.6107 78.3426 21.7708 77.014 21.7708ZM77.0327 23.9414C80.1199 23.9414 82.1408 21.7521 82.1408 18.8705C82.1408 15.9889 80.1199 13.7996 77.0327 13.7996C73.964 13.7996 71.9057 15.9889 71.9057 18.8705C71.9057 21.7521 73.964 23.9414 77.0327 23.9414Z" fill="black"/>
<path d="M83.0319 23.6419H86.0819V14.0615H83.0319V23.6419ZM83.0319 12.7329H86.0819V10.2629H83.0319V12.7329Z" fill="black"/>
<path d="M87.405 26.8042H90.4551V22.6502H90.4925C91.0913 23.4548 91.9707 23.9413 93.2057 23.9413C95.7131 23.9413 97.3785 21.9579 97.3785 18.8517C97.3785 15.9701 95.8254 13.7808 93.2806 13.7808C91.9707 13.7808 91.0351 14.3608 90.3802 15.2216H90.3241V14.0614H87.405V26.8042ZM92.4198 21.5836C91.11 21.5836 90.3615 20.517 90.3615 18.964C90.3615 17.4109 91.0351 16.232 92.3637 16.232C93.6735 16.232 94.291 17.3173 94.291 18.964C94.291 20.5919 93.58 21.5836 92.4198 21.5836Z" fill="black"/>
<path d="M102.344 23.9413C104.852 23.9413 106.704 22.856 106.704 20.7603C106.704 18.309 104.721 17.8787 103.037 17.598C101.82 17.3734 100.735 17.2799 100.735 16.6063C100.735 16.0075 101.315 15.7268 102.063 15.7268C102.906 15.7268 103.486 15.9888 103.598 16.8495H106.405C106.255 14.9596 104.795 13.7808 102.082 13.7808C99.8181 13.7808 97.9469 14.8286 97.9469 16.8495C97.9469 19.0949 99.7245 19.544 101.39 19.8247C102.662 20.0492 103.822 20.1428 103.822 21.0036C103.822 21.621 103.242 21.9579 102.325 21.9579C101.315 21.9579 100.679 21.4901 100.567 20.5358H97.6849C97.7785 22.6502 99.5374 23.9413 102.344 23.9413Z" fill="black"/>
<path d="M110.847 23.9227C112.176 23.9227 113.018 23.3988 113.71 22.4632H113.766V23.642H116.685V14.0615H113.635V19.4131C113.635 20.5546 112.999 21.3405 111.951 21.3405C110.978 21.3405 110.51 20.7604 110.51 19.7125V14.0615H107.479V20.3487C107.479 22.4819 108.639 23.9227 110.847 23.9227Z" fill="black"/>
<path d="M118.012 23.6419H121.062V18.2716C121.062 17.1302 121.624 16.3256 122.578 16.3256C123.495 16.3256 123.925 16.9244 123.925 17.9535V23.6419H126.975V18.2716C126.975 17.1302 127.518 16.3256 128.491 16.3256C129.408 16.3256 129.838 16.9244 129.838 17.9535V23.6419H132.888V17.4109C132.888 15.259 131.803 13.7808 129.632 13.7808C128.397 13.7808 127.368 14.3047 126.62 15.4648H126.582C126.096 14.4357 125.141 13.7808 123.888 13.7808C122.503 13.7808 121.586 14.4357 120.987 15.4274H120.931V14.0614H118.012V23.6419Z" fill="black"/>
<path fill-rule="evenodd" clip-rule="evenodd" d="M16.6042 32.2182C25.2162 32.2182 32.1974 25.2369 32.1974 16.625C32.1974 8.01307 25.2162 1.03174 16.6042 1.03174C7.99228 1.03174 1.01096 8.01307 1.01096 16.625C1.01096 25.2369 7.99228 32.2182 16.6042 32.2182ZM19.011 13.0795C20.3402 11.7503 20.3402 9.59521 19.011 8.26596C17.6817 6.93673 15.5267 6.93673 14.1974 8.26596C12.8683 9.59521 12.8683 11.7503 14.1974 13.0795L16.6042 15.4863L19.011 13.0795ZM20.1497 19.0318C21.4789 20.361 23.634 20.361 24.9633 19.0318C26.2924 17.7025 26.2924 15.5475 24.9633 14.2182C23.634 12.889 21.4789 12.889 20.1497 14.2182L17.743 16.625L20.1497 19.0318ZM19.011 24.984C20.3402 23.6548 20.3402 21.4997 19.011 20.1705L16.6042 17.7637L14.1974 20.1705C12.8683 21.4997 12.8683 23.6548 14.1974 24.984C15.5267 26.3133 17.6817 26.3133 19.011 24.984ZM8.24516 19.0318C6.91596 17.7025 6.91596 15.5475 8.24516 14.2182C9.57443 12.889 11.7295 12.889 13.0587 14.2182L15.4655 16.625L13.0587 19.0318C11.7295 20.361 9.57443 20.361 8.24516 19.0318Z" fill="black"/>
</g>
<defs>
<clipPath id="clip0_780_4079">
<rect width="132.543" height="31.9662" fill="white" transform="translate(0.931885 0.779785)"/>
</clipPath>
</defs>
</svg>
