<svg width="131" height="33" viewBox="0 0 131 33" fill="none" xmlns="http://www.w3.org/2000/svg">
<g opacity="0.8" clip-path="url(#clip0_780_4014)">
<path d="M38.4198 23.3529H47.7384V20.5461H41.7318V9.97388H38.4198V23.3529Z" fill="black"/>
<path d="M53.2593 21.4818C51.9307 21.4818 51.2384 20.3216 51.2384 18.5814C51.2384 16.8412 51.9307 15.6624 53.2593 15.6624C54.5878 15.6624 55.2989 16.8412 55.2989 18.5814C55.2989 20.3216 54.5878 21.4818 53.2593 21.4818ZM53.278 23.6523C56.3655 23.6523 58.3864 21.4631 58.3864 18.5814C58.3864 15.6998 56.3655 13.5105 53.278 13.5105C50.2092 13.5105 48.1509 15.6998 48.1509 18.5814C48.1509 21.4631 50.2092 23.6523 53.278 23.6523Z" fill="black"/>
<path d="M63.7305 26.6649C65.1526 26.6649 66.4063 26.3468 67.2483 25.5983C68.0155 24.906 68.5207 23.8581 68.5207 22.4173V13.7724H65.6017V14.8015H65.5643C65.0029 13.9969 64.1422 13.4917 62.8697 13.4917C60.4933 13.4917 58.8467 15.4752 58.8467 18.2819C58.8467 21.2197 60.8489 22.8289 63.0007 22.8289C64.1609 22.8289 64.8906 22.3611 65.452 21.7249H65.5268V22.6792C65.5268 23.8394 64.9842 24.513 63.6931 24.513C62.6826 24.513 62.1774 24.0826 62.009 23.5774H59.0525C59.3519 25.5796 61.0921 26.6649 63.7305 26.6649ZM63.7118 20.5648C62.5704 20.5648 61.8219 19.6292 61.8219 18.1884C61.8219 16.7289 62.5704 15.7933 63.7118 15.7933C64.9842 15.7933 65.6578 16.8786 65.6578 18.1697C65.6578 19.5169 65.0403 20.5648 63.7118 20.5648Z" fill="black"/>
<path d="M74.5229 21.4818C73.1944 21.4818 72.502 20.3216 72.502 18.5814C72.502 16.8412 73.1944 15.6624 74.5229 15.6624C75.8514 15.6624 76.5625 16.8412 76.5625 18.5814C76.5625 20.3216 75.8514 21.4818 74.5229 21.4818ZM74.5416 23.6523C77.6291 23.6523 79.6496 21.4631 79.6496 18.5814C79.6496 15.6998 77.6291 13.5105 74.5416 13.5105C71.4729 13.5105 69.4146 15.6998 69.4146 18.5814C69.4146 21.4631 71.4729 23.6523 74.5416 23.6523Z" fill="black"/>
<path d="M80.5407 23.3529H83.5907V13.7724H80.5407V23.3529ZM80.5407 12.4438H83.5907V9.97388H80.5407V12.4438Z" fill="black"/>
<path d="M84.9138 26.5152H87.9639V22.3611H88.0013C88.6001 23.1658 89.4795 23.6523 90.7145 23.6523C93.2219 23.6523 94.8873 21.6688 94.8873 18.5626C94.8873 15.681 93.3342 13.4917 90.7894 13.4917C89.4795 13.4917 88.5439 14.0718 87.889 14.9325H87.8329V13.7724H84.9138V26.5152ZM89.9286 21.2946C88.6188 21.2946 87.8703 20.228 87.8703 18.6749C87.8703 17.1218 88.5439 15.943 89.8725 15.943C91.1823 15.943 91.7998 17.0282 91.7998 18.6749C91.7998 20.3028 91.0887 21.2946 89.9286 21.2946Z" fill="black"/>
<path d="M99.853 23.6523C102.36 23.6523 104.213 22.567 104.213 20.4712C104.213 18.02 102.229 17.5896 100.545 17.3089C99.329 17.0844 98.2437 16.9908 98.2437 16.3172C98.2437 15.7184 98.8238 15.4377 99.5723 15.4377C100.414 15.4377 100.994 15.6997 101.107 16.5605H103.913C103.764 14.6705 102.304 13.4917 99.591 13.4917C97.3269 13.4917 95.4557 14.5396 95.4557 16.5605C95.4557 18.8059 97.2333 19.255 98.8987 19.5356C100.171 19.7602 101.331 19.8537 101.331 20.7145C101.331 21.332 100.751 21.6688 99.8342 21.6688C98.8238 21.6688 98.1876 21.201 98.0753 20.2467H95.1937C95.2873 22.3611 97.0462 23.6523 99.853 23.6523Z" fill="black"/>
<path d="M108.356 23.6336C109.685 23.6336 110.527 23.1097 111.219 22.1741H111.275V23.353H114.194V13.7725H111.144V19.1241C111.144 20.2655 110.508 21.0514 109.46 21.0514C108.487 21.0514 108.019 20.4713 108.019 19.4235V13.7725H104.988V20.0597C104.988 22.1928 106.148 23.6336 108.356 23.6336Z" fill="black"/>
<path d="M115.521 23.3529H118.571V17.9826C118.571 16.8411 119.132 16.0365 120.087 16.0365C121.004 16.0365 121.434 16.6353 121.434 17.6645V23.3529H124.484V17.9826C124.484 16.8411 125.027 16.0365 126 16.0365C126.917 16.0365 127.347 16.6353 127.347 17.6645V23.3529H130.397V17.1218C130.397 14.9699 129.312 13.4917 127.141 13.4917C125.906 13.4917 124.877 14.0156 124.128 15.1758H124.091C123.605 14.1466 122.65 13.4917 121.397 13.4917C120.012 13.4917 119.095 14.1466 118.496 15.1383H118.44V13.7724H115.521V23.3529Z" fill="black"/>
<path d="M19.8111 2.32117L16.7447 1.49951L14.1606 11.1436L11.8276 2.43685L8.76113 3.25851L11.2818 12.6655L5.00344 6.3872L2.75864 8.632L9.64519 15.5186L1.06909 13.2206L0.247437 16.287L9.6179 18.7979C9.51062 18.3351 9.45386 17.853 9.45386 17.3576C9.45386 13.851 12.2965 11.0083 15.8031 11.0083C19.3097 11.0083 22.1524 13.851 22.1524 17.3576C22.1524 17.8498 22.0963 18.329 21.9904 18.789L30.5064 21.0708L31.328 18.0044L21.9203 15.4836L30.497 13.1855L29.6753 10.119L20.2679 12.6397L26.5463 6.36142L24.3014 4.11663L17.5104 10.9077L19.8111 2.32117Z" fill="black"/>
<path d="M21.982 18.8247C21.7191 19.9362 21.1641 20.9347 20.4025 21.7347L26.572 27.9043L28.8168 25.6595L21.982 18.8247Z" fill="black"/>
<path d="M20.3402 21.7991C19.5694 22.5863 18.5954 23.1738 17.5031 23.4765L19.748 31.8548L22.8144 31.0331L20.3402 21.7991Z" fill="black"/>
<path d="M17.3885 23.5074C16.8817 23.6376 16.3506 23.7069 15.8032 23.7069C15.2167 23.7069 14.6488 23.6274 14.1097 23.4785L11.8627 31.8644L14.9291 32.686L17.3885 23.5074Z" fill="black"/>
<path d="M14.0013 23.4474C12.9256 23.1296 11.9689 22.5346 11.2139 21.7451L5.02924 27.9298L7.27403 30.1746L14.0013 23.4474Z" fill="black"/>
<path d="M11.1623 21.6906C10.4202 20.8962 9.87966 19.911 9.62238 18.8167L1.07855 21.106L1.9002 24.1724L11.1623 21.6906Z" fill="black"/>
</g>
<defs>
<clipPath id="clip0_780_4014">
<rect width="130.983" height="31.9662" fill="white" transform="translate(0 0.779785)"/>
</clipPath>
</defs>
</svg>
