<svg width="131" height="33" viewBox="0 0 131 33" fill="none" xmlns="http://www.w3.org/2000/svg">
<g opacity="0.8" clip-path="url(#clip0_780_4041)">
<path d="M38.4239 23.2291H47.7424V20.4223H41.7359V9.8501H38.4239V23.2291Z" fill="black"/>
<path d="M53.2634 21.358C51.9348 21.358 51.2425 20.1979 51.2425 18.4576C51.2425 16.7174 51.9348 15.5386 53.2634 15.5386C54.5919 15.5386 55.303 16.7174 55.303 18.4576C55.303 20.1979 54.5919 21.358 53.2634 21.358ZM53.2821 23.5286C56.3696 23.5286 58.3904 21.3393 58.3904 18.4576C58.3904 15.576 56.3696 13.3867 53.2821 13.3867C50.2133 13.3867 48.155 15.576 48.155 18.4576C48.155 21.3393 50.2133 23.5286 53.2821 23.5286Z" fill="black"/>
<path d="M63.7346 26.5411C65.1567 26.5411 66.4104 26.223 67.2524 25.4745C68.0196 24.7822 68.5248 23.7343 68.5248 22.2935V13.6486H65.6058V14.6778H65.5683C65.007 13.8731 64.1462 13.3679 62.8738 13.3679C60.4974 13.3679 58.8508 15.3514 58.8508 18.1582C58.8508 21.0959 60.8529 22.7052 63.0048 22.7052C64.1649 22.7052 64.8947 22.2374 65.4561 21.6012H65.5309V22.5555C65.5309 23.7156 64.9883 24.3892 63.6971 24.3892C62.6867 24.3892 62.1815 23.9589 62.0131 23.4536H59.0566C59.356 25.4558 61.0962 26.5411 63.7346 26.5411ZM63.7158 20.441C62.5744 20.441 61.8259 19.5054 61.8259 18.0646C61.8259 16.6051 62.5744 15.6695 63.7158 15.6695C64.9883 15.6695 65.6619 16.7548 65.6619 18.0459C65.6619 19.3932 65.0444 20.441 63.7158 20.441Z" fill="black"/>
<path d="M74.527 21.358C73.1984 21.358 72.5061 20.1979 72.5061 18.4576C72.5061 16.7174 73.1984 15.5386 74.527 15.5386C75.8555 15.5386 76.5666 16.7174 76.5666 18.4576C76.5666 20.1979 75.8555 21.358 74.527 21.358ZM74.5457 23.5286C77.6331 23.5286 79.6543 21.3393 79.6543 18.4576C79.6543 15.576 77.6331 13.3867 74.5457 13.3867C71.4769 13.3867 69.4186 15.576 69.4186 18.4576C69.4186 21.3393 71.4769 23.5286 74.5457 23.5286Z" fill="black"/>
<path d="M80.5446 23.2291H83.5947V13.6486H80.5446V23.2291ZM80.5446 12.3201H83.5947V9.8501H80.5446V12.3201Z" fill="black"/>
<path d="M84.9178 26.3914H87.9678V22.2374H88.0052C88.604 23.042 89.4835 23.5285 90.7185 23.5285C93.2259 23.5285 94.8912 21.545 94.8912 18.4388C94.8912 15.5572 93.3381 13.3679 90.7933 13.3679C89.4835 13.3679 88.5479 13.948 87.893 14.8087H87.8368V13.6486H84.9178V26.3914ZM89.9326 21.1708C88.6227 21.1708 87.8743 20.1042 87.8743 18.5511C87.8743 16.998 88.5479 15.8192 89.8764 15.8192C91.1863 15.8192 91.8038 16.9045 91.8038 18.5511C91.8038 20.1791 91.0927 21.1708 89.9326 21.1708Z" fill="black"/>
<path d="M99.8577 23.5285C102.365 23.5285 104.218 22.4432 104.218 20.3475C104.218 17.8962 102.234 17.4658 100.55 17.1851C99.3337 16.9606 98.2484 16.867 98.2484 16.1934C98.2484 15.5946 98.8285 15.314 99.577 15.314C100.419 15.314 100.999 15.5759 101.111 16.4367H103.918C103.768 14.5468 102.309 13.3679 99.5957 13.3679C97.3316 13.3679 95.4604 14.4158 95.4604 16.4367C95.4604 18.6821 97.238 19.1312 98.9034 19.4119C100.176 19.6364 101.336 19.73 101.336 20.5907C101.336 21.2082 100.756 21.545 99.839 21.545C98.8285 21.545 98.1923 21.0772 98.08 20.1229H95.1984C95.292 22.2374 97.0509 23.5285 99.8577 23.5285Z" fill="black"/>
<path d="M108.36 23.5099C109.688 23.5099 110.53 22.9859 111.223 22.0503H111.279V23.2292H114.198V13.6487H111.148V19.0003C111.148 20.1417 110.512 20.9276 109.464 20.9276C108.491 20.9276 108.023 20.3475 108.023 19.2997V13.6487H104.992V19.9359C104.992 22.069 106.152 23.5099 108.36 23.5099Z" fill="black"/>
<path d="M115.525 23.2291H118.575V17.8588C118.575 16.7174 119.136 15.9127 120.091 15.9127C121.008 15.9127 121.438 16.5115 121.438 17.5407V23.2291H124.488V17.8588C124.488 16.7174 125.031 15.9127 126.004 15.9127C126.921 15.9127 127.351 16.5115 127.351 17.5407V23.2291H130.401V16.998C130.401 14.8462 129.316 13.3679 127.145 13.3679C125.91 13.3679 124.881 13.8919 124.132 15.052H124.095C123.609 14.0228 122.654 13.3679 121.401 13.3679C120.016 13.3679 119.099 14.0228 118.5 15.0146H118.444V13.6486H115.525V23.2291Z" fill="black"/>
<path fill-rule="evenodd" clip-rule="evenodd" d="M7.25578 3.81415C6.14035 4.5941 5.1317 5.51624 4.2561 6.5543C7.83421 6.22211 12.3801 6.76454 17.6578 9.40341C23.2936 12.2213 27.8319 12.3165 30.9903 11.7073C30.7037 10.8396 30.3429 10.0057 29.9155 9.21294C26.3 9.59427 21.6649 9.08951 16.2631 6.38869C12.8329 4.67358 9.8092 3.96708 7.25578 3.81415ZM27.8035 6.20677C24.9483 3.01666 20.799 1.00903 16.1808 1.00903C14.8245 1.00903 13.5086 1.1822 12.2541 1.50761C13.9532 1.9712 15.7581 2.64943 17.6578 3.59928C21.6127 5.57671 25.0271 6.2134 27.8035 6.20677ZM31.6656 14.753C27.8499 15.5064 22.5809 15.3517 16.2631 12.1928C10.3567 9.2396 5.65568 9.27679 2.48516 9.98137C2.32151 10.0177 2.16171 10.0559 2.00577 10.0957C1.59067 10.9984 1.25932 11.9478 1.02158 12.9336C1.2755 12.8657 1.53789 12.8013 1.80862 12.7411C5.65501 11.8863 11.0896 11.9234 17.6578 15.2075C23.5642 18.1607 28.2652 18.1235 31.4358 17.419C31.5444 17.3949 31.6514 17.3699 31.7567 17.3442C31.7682 17.0984 31.774 16.851 31.774 16.6023C31.774 15.9766 31.7372 15.3595 31.6656 14.753ZM31.2476 20.6349C27.469 21.2955 22.3533 21.042 16.2631 17.9969C10.3567 15.0437 5.65568 15.0809 2.48516 15.7855C1.7814 15.9418 1.1483 16.1323 0.589824 16.3334C0.588301 16.4228 0.58754 16.5124 0.58754 16.6023C0.58754 25.2142 7.56887 32.1955 16.1808 32.1955C23.3982 32.1955 29.4703 27.2921 31.2476 20.6349Z" fill="black"/>
</g>
<defs>
<clipPath id="clip0_780_4041">
<rect width="130.204" height="31.9662" fill="white" transform="translate(0.508362 0.779785)"/>
</clipPath>
</defs>
</svg>
